<?xml version="1.0" standalone="no"?><!-- Generator: Gravit.io --><svg xmlns="http://www.w3.org/2000/svg" xmlns:xlink="http://www.w3.org/1999/xlink" style="isolation:isolate" viewBox="0 0 500 500" width="500" height="500"><defs><clipPath id="_clipPath_a8glsylr5IksNVBf3LepjjXXPhLufWHK"><rect width="500" height="500"/></clipPath></defs><g clip-path="url(#_clipPath_a8glsylr5IksNVBf3LepjjXXPhLufWHK)"><g style="isolation:isolate"><rect x="0" y="0" width="500" height="504" transform="matrix(1,0,0,1,0,0)" fill="rgb(70,70,70)" vector-effect="non-scaling-stroke" stroke-width="10" stroke="rgb(0,0,0)" stroke-linejoin="miter" stroke-linecap="square" stroke-miterlimit="2"/><rect x="0" y="0" width="500" height="98" transform="matrix(1,0,0,1,0,0)" fill="rgb(209,209,209)" vector-effect="non-scaling-stroke" stroke-width="10" stroke="rgb(0,0,0)" stroke-linejoin="miter" stroke-linecap="square" stroke-miterlimit="2"/></g><g style="isolation:isolate"><g transform="matrix(1,0,0,1,18,-127)"><text transform="matrix(1,0,0,1,0,186.4)" style="font-family:'Ubuntu';font-weight:400;font-size:200px;font-style:normal;fill:#ff0000;stroke:none;">.</text><text transform="matrix(1,0,0,1,49.2,186.4)" style="font-family:'Ubuntu';font-weight:400;font-size:200px;font-style:normal;fill:#ffbf00;stroke:none;">.</text><text transform="matrix(1,0,0,1,98.4,186.4)" style="font-family:'Ubuntu';font-weight:400;font-size:200px;font-style:normal;fill:#00ff00;stroke:none;">.</text></g></g><g style="isolation:isolate"><line x1="45" y1="124" x2="385.5" y2="124" vector-effect="non-scaling-stroke" stroke-width="30" stroke="rgb(100,138,242)" stroke-linejoin="miter" stroke-linecap="square" stroke-miterlimit="3"/><line x1="46" y1="174" x2="284" y2="174" vector-effect="non-scaling-stroke" stroke-width="30" stroke="rgb(73,244,88)" stroke-linejoin="miter" stroke-linecap="square" stroke-miterlimit="3"/><line x1="46" y1="375" x2="362" y2="375" vector-effect="non-scaling-stroke" stroke-width="30" stroke="rgb(255,255,0)" stroke-linejoin="miter" stroke-linecap="square" stroke-miterlimit="3"/><line x1="46" y1="466" x2="282" y2="466" vector-effect="non-scaling-stroke" stroke-width="30" stroke="rgb(198,34,94)" stroke-linejoin="miter" stroke-linecap="square" stroke-miterlimit="3"/><path d=" M 45 422 C 100.027 422 120.607 422 169 422" fill="none" vector-effect="non-scaling-stroke" stroke-width="30" stroke="rgb(153,0,255)" stroke-linejoin="miter" stroke-linecap="square" stroke-miterlimit="3"/><path d=" M 215 422 C 270.027 422 290.607 422 339 422" fill="none" vector-effect="non-scaling-stroke" stroke-width="30" stroke="rgb(0,0,255)" stroke-linejoin="miter" stroke-linecap="square" stroke-miterlimit="3"/></g><g transform="matrix(1,0,0,1,18,229)"><text transform="matrix(1,0,0,1,0,90)" style="font-family:'Orbitron';font-weight:400;font-size:120px;font-style:normal;fill:#f4406d;stroke:none;">&lt;/SES&gt;</text></g></g></svg>