<?xml version="1.0" standalone="no"?>
<!DOCTYPE svg PUBLIC "-//W3C//DTD SVG 20010904//EN"
 "http://www.w3.org/TR/2001/REC-SVG-20010904/DTD/svg10.dtd">
<svg version="1.0" xmlns="http://www.w3.org/2000/svg"
 width="451.000000pt" height="451.000000pt" viewBox="0 0 451.000000 451.000000"
 preserveAspectRatio="xMidYMid meet">
<metadata>
Created by potrace 1.11, written by Peter Selinger 2001-2013
</metadata>
<g transform="translate(0.000000,451.000000) scale(0.100000,-0.100000)"
fill="#000000" stroke="none">
<path d="M757 3193 c-2 -1 -25 -4 -137 -17 -14 -1 -32 -5 -40 -8 -8 -4 -38
-14 -66 -23 -28 -8 -72 -29 -98 -45 -26 -17 -49 -30 -52 -30 -8 0 -94 -93 -94
-102 0 -4 -6 -13 -13 -20 -21 -22 -48 -93 -62 -163 -13 -62 -5 -167 16 -222 5
-14 7 -28 4 -33 -3 -4 2 -11 11 -14 10 -4 14 -14 11 -26 -3 -11 -2 -18 2 -16
4 3 14 -4 22 -15 8 -12 22 -30 31 -41 10 -11 15 -25 11 -31 -3 -5 -1 -7 4 -4
6 4 25 -9 42 -28 17 -20 31 -32 31 -28 1 4 12 -5 26 -22 15 -16 23 -23 18 -15
-7 13 -6 13 12 0 10 -8 22 -19 26 -25 4 -5 8 -6 8 -2 0 5 13 -1 29 -12 15 -11
32 -17 36 -13 5 4 5 1 1 -5 -4 -7 -2 -14 3 -14 19 -2 25 -5 76 -29 28 -12 56
-23 63 -23 6 0 12 -4 12 -9 0 -5 4 -7 8 -4 4 2 14 0 22 -5 13 -8 13 -10 0 -19
-8 -5 -10 -10 -4 -10 5 0 15 5 21 11 7 7 20 4 44 -10 19 -12 42 -21 52 -21 9
0 17 -4 17 -10 0 -5 7 -10 15 -10 15 0 55 -19 65 -31 3 -3 20 -14 38 -23 58
-30 162 -146 130 -146 -9 0 -9 -3 0 -12 18 -18 15 -59 -5 -74 -17 -13 -17 -14
0 -8 20 7 20 6 6 -35 -6 -17 -15 -31 -21 -31 -5 0 -6 -4 -3 -10 3 -5 1 -10 -4
-10 -6 0 -11 -7 -11 -15 0 -8 -6 -15 -14 -15 -8 0 -16 -6 -19 -13 -7 -18 -86
-56 -132 -64 -11 -2 -63 -6 -115 -9 -103 -6 -190 8 -287 48 -42 17 -52 26 -55
50 -4 22 -1 28 10 23 13 -5 13 -3 1 11 -15 18 -20 54 -7 54 5 0 4 9 -2 19 -5
11 -6 22 -2 25 9 5 8 59 -2 75 -4 5 -2 12 4 16 7 4 7 12 1 23 -8 14 -29 17
-138 17 l-128 1 -1 -236 c0 -181 3 -238 13 -248 7 -7 13 -11 13 -7 0 3 14 -2
30 -10 17 -9 28 -20 25 -25 -3 -5 0 -12 6 -16 8 -4 9 -3 5 4 -5 8 1 12 14 12
12 0 18 -4 15 -10 -3 -5 3 -10 14 -10 25 0 52 -10 47 -19 -2 -3 6 -7 17 -7 12
-1 31 -4 42 -7 11 -3 44 -12 73 -19 29 -8 49 -18 45 -23 -5 -5 -1 -4 8 3 9 6
19 9 22 6 4 -4 23 -9 44 -11 20 -2 44 -9 52 -16 12 -9 13 -9 7 1 -4 6 -2 12 3
12 6 0 11 -6 11 -12 0 -9 4 -8 10 2 9 13 11 13 20 0 8 -12 10 -12 10 -1 0 10
3 11 14 2 8 -7 17 -8 20 -3 4 7 61 9 61 2 0 -1 8 -3 18 -5 9 -2 15 1 11 6 -4
8 26 12 89 12 9 0 17 4 17 9 0 6 12 8 26 5 16 -3 28 0 31 9 4 11 9 12 19 3 8
-6 14 -7 14 -2 0 15 58 33 64 19 2 -6 5 -3 5 7 1 10 6 15 11 12 6 -3 10 -2 10
4 0 5 8 12 18 15 10 4 36 22 58 41 21 19 45 35 53 35 8 0 11 3 8 7 -8 8 13 34
22 28 4 -2 8 1 8 8 0 22 45 87 56 80 6 -3 7 -1 3 5 -4 7 -4 18 1 25 9 14 8 9
18 64 4 24 10 41 14 39 3 -2 5 25 4 60 -1 47 1 62 10 57 9 -5 9 -3 0 8 -6 8
-14 37 -16 64 -3 28 -6 52 -7 55 -1 3 -2 8 -1 13 0 4 -4 7 -10 7 -5 0 -8 4 -5
8 7 12 -58 109 -107 160 -67 69 -202 152 -352 217 -107 46 -242 110 -256 122
-8 7 -19 13 -22 13 -19 0 -137 113 -138 132 0 7 -3 22 -6 33 -11 48 9 131 30
118 6 -4 7 -1 2 6 -4 7 1 20 14 32 21 20 36 26 26 10 -3 -5 -1 -12 4 -16 6 -3
8 3 6 15 -3 16 6 24 39 40 68 30 143 42 165 26 11 -8 13 -8 7 2 -6 9 -1 12 16
10 32 -5 50 -17 42 -30 -4 -7 -2 -8 5 -4 9 6 9 11 0 22 -9 11 -7 14 10 14 12
0 20 -4 16 -9 -3 -5 -1 -13 5 -16 6 -4 10 -3 9 2 -4 22 2 25 16 7 11 -13 14
-14 13 -4 -2 9 3 14 12 12 8 -2 27 -5 42 -6 15 -1 30 -5 34 -8 3 -4 13 -4 22
-1 10 4 13 2 8 -5 -5 -8 -2 -10 9 -6 12 5 16 2 13 -12 -2 -11 -7 -22 -13 -26
-6 -5 -6 -8 2 -8 6 0 11 -13 11 -30 -1 -16 -5 -27 -9 -24 -4 2 -11 0 -14 -6
-4 -6 -1 -9 6 -8 9 2 13 -15 15 -59 1 -34 -2 -60 -6 -58 -5 3 -3 -5 3 -18 9
-20 17 -22 83 -21 49 0 71 -3 67 -10 -4 -6 0 -5 8 1 9 7 35 11 62 9 52 -3 47
-10 51 79 0 22 5 46 10 54 6 10 6 12 -2 7 -8 -5 -12 2 -12 19 0 18 4 24 13 19
9 -6 9 -4 1 7 -6 8 -11 38 -12 67 -1 47 1 53 16 48 16 -6 16 -5 0 7 -13 10
-17 28 -16 78 1 35 5 74 9 87 7 17 6 21 -3 16 -8 -5 -9 -2 -5 9 7 20 3 21 -24
6 -15 -7 -34 -5 -77 10 -31 10 -73 22 -92 25 -19 3 -46 8 -60 11 -35 7 -299
23 -303 18z"/>
<path d="M3747 3193 c-1 -1 -31 -4 -67 -7 -36 -3 -74 -8 -85 -10 -41 -8 -155
-49 -155 -55 0 -4 -9 -7 -20 -8 -11 -1 -26 -8 -34 -15 -7 -7 -30 -26 -51 -43
-22 -16 -42 -34 -47 -40 -5 -5 -17 -21 -28 -34 -11 -14 -30 -45 -43 -70 -12
-25 -25 -47 -28 -49 -4 -2 -4 -12 -1 -24 3 -12 1 -19 -4 -15 -11 7 -11 -207 0
-243 19 -61 61 -134 102 -176 24 -26 41 -51 37 -57 -3 -5 -2 -7 4 -4 13 8 55
-22 47 -34 -3 -5 -2 -9 3 -8 18 3 30 -2 49 -19 10 -10 22 -19 27 -20 24 -5 67
-34 62 -42 -3 -5 0 -12 6 -16 8 -4 9 -3 5 4 -4 7 -1 12 8 12 9 0 16 -4 16 -10
0 -5 3 -9 8 -8 16 6 71 -25 65 -36 -5 -8 -3 -8 8 0 11 9 17 9 26 -1 6 -7 9
-17 5 -21 -4 -5 0 -3 9 4 14 10 20 10 33 -3 9 -9 16 -13 16 -9 0 3 6 2 13 -3
6 -6 25 -13 41 -17 24 -6 27 -9 15 -17 -10 -7 -6 -8 14 -3 17 4 27 2 27 -5 0
-6 7 -11 15 -11 19 0 55 -20 73 -40 12 -13 13 -13 7 0 -4 10 -2 9 8 -2 8 -10
16 -16 19 -13 2 2 19 -9 37 -25 18 -17 35 -30 39 -30 14 -1 43 -50 36 -62 -4
-6 -3 -8 3 -5 13 8 19 -13 22 -80 1 -34 -2 -53 -9 -53 -6 0 -8 -4 -5 -10 6
-10 -9 -44 -29 -67 -6 -7 -17 -19 -24 -28 -7 -8 -18 -12 -24 -9 -7 4 -8 2 -4
-4 6 -10 -27 -29 -99 -58 -11 -4 -72 -9 -135 -10 -105 -3 -171 5 -225 27 -11
4 -37 13 -57 20 -20 7 -35 16 -32 21 3 4 -2 5 -10 2 -13 -5 -15 2 -13 40 1 25
-2 48 -8 50 -7 3 -7 5 0 5 11 1 11 74 0 91 -3 6 -1 10 6 10 10 0 10 3 1 12 -6
6 -8 17 -3 27 5 9 5 25 1 36 -7 19 -16 20 -136 20 l-127 0 -1 -157 c0 -105 -4
-155 -11 -150 -5 3 -5 -1 1 -9 7 -8 10 -44 8 -91 -2 -56 0 -77 9 -75 7 1 11
-4 9 -11 -1 -8 2 -11 7 -8 13 9 63 -12 57 -23 -4 -5 3 -7 14 -4 11 3 20 0 20
-6 0 -6 3 -10 8 -9 19 7 132 -38 132 -52 0 -13 2 -13 9 -1 8 12 14 13 36 3 14
-7 35 -12 46 -12 13 0 18 -4 13 -12 -5 -10 -4 -10 6 -1 8 7 21 8 34 3 25 -9
30 -10 57 -10 11 0 18 -4 15 -8 -3 -5 1 -9 9 -9 8 0 12 4 9 9 -8 13 10 10 25
-4 11 -10 13 -10 7 0 -9 16 6 16 23 -1 8 -6 11 -7 8 -2 -3 7 18 11 56 11 34 0
81 3 105 6 34 4 42 2 43 -11 0 -11 3 -9 9 6 6 15 16 21 34 19 14 -2 26 0 26 5
0 5 7 6 15 3 8 -4 15 -1 15 5 0 6 5 11 11 11 5 0 7 -5 3 -12 -4 -7 6 -2 23 10
17 12 33 19 37 15 3 -3 6 -1 6 6 0 8 7 11 15 7 9 -3 18 1 22 10 3 8 18 21 34
29 15 8 40 27 54 41 14 14 30 22 35 19 5 -3 7 0 4 9 -3 9 3 19 16 26 11 6 18
15 15 21 -4 5 -1 9 4 9 6 0 11 6 11 13 0 7 8 22 18 33 10 10 19 22 20 27 11
48 16 64 21 72 3 6 6 18 7 28 1 9 2 18 4 20 1 1 3 17 4 34 1 18 5 36 9 39 4 4
1 14 -6 22 -9 12 -9 16 1 19 6 3 9 10 5 16 -4 7 -8 19 -10 27 -10 76 -18 102
-45 150 -17 30 -39 64 -49 75 -10 11 -29 31 -41 45 -13 14 -39 36 -58 50 -19
13 -37 27 -40 30 -19 23 -207 119 -302 155 -27 10 -48 22 -48 28 0 6 -3 8 -6
4 -6 -5 -106 43 -190 91 -47 27 -105 85 -100 99 3 7 0 12 -6 10 -22 -4 -31 64
-19 152 1 2 8 0 17 -3 13 -5 14 -4 6 7 -9 10 -7 19 9 36 11 12 24 19 29 16 6
-3 7 1 4 9 -8 21 6 20 21 0 10 -15 12 -14 11 6 -1 20 8 27 48 41 27 10 53 16
57 13 4 -2 10 0 13 4 3 5 58 7 123 5 156 -4 173 -6 182 -22 7 -11 9 -11 13 0
2 7 10 9 16 5 16 -10 15 -63 0 -69 -10 -4 -10 -6 0 -6 6 -1 12 -10 12 -22 0
-13 -4 -18 -12 -13 -10 6 -9 3 0 -9 8 -9 13 -35 12 -59 -4 -91 -2 -98 25 -98
19 0 23 -4 19 -17 -5 -15 -4 -16 5 -3 8 11 34 15 103 17 51 1 98 2 103 2 6 1
10 43 9 111 -1 61 2 113 7 116 5 3 3 13 -3 24 -9 14 -9 22 3 36 8 10 9 15 2
11 -10 -6 -12 12 -9 76 2 47 6 89 10 96 4 6 2 11 -4 11 -7 0 -10 7 -6 15 6 18
2 19 -25 4 -15 -8 -33 -5 -74 10 -30 12 -55 18 -55 15 0 -4 -6 -2 -12 3 -7 5
-28 9 -45 9 -18 -1 -33 2 -33 6 0 4 -8 7 -17 7 -10 -1 -49 2 -88 5 -74 7 -196
12 -198 9z"/>
<path d="M1758 3162 c-12 -2 -15 -14 -14 -48 1 -24 -3 -44 -9 -44 -7 0 -7 -3
0 -8 13 -9 19 -46 6 -38 -6 4 -7 -4 -1 -24 6 -21 5 -30 -3 -30 -8 0 -7 -3 2
-9 9 -6 10 -11 2 -15 -6 -4 -8 -12 -4 -19 10 -16 10 -250 0 -264 -4 -6 -3 -14
3 -18 5 -3 10 -11 10 -16 0 -6 -4 -8 -9 -4 -6 3 -6 -6 -1 -25 6 -21 5 -30 -3
-30 -8 0 -7 -3 2 -9 9 -6 10 -10 2 -16 -9 -5 -9 -11 1 -23 10 -11 10 -16 1
-19 -8 -3 -9 -12 -4 -26 9 -26 7 -79 -3 -95 -4 -7 -2 -12 5 -12 8 0 8 -4 -1
-15 -7 -8 -9 -15 -4 -15 10 0 10 -73 0 -88 -3 -6 0 -12 6 -15 10 -3 10 -7 -1
-20 -7 -10 -9 -17 -4 -17 13 0 14 -38 1 -46 -7 -4 -6 -9 1 -14 8 -5 9 -14 2
-33 -6 -15 -7 -27 -2 -27 12 0 8 -63 -4 -72 -6 -5 -5 -8 4 -8 10 0 11 -3 2
-13 -6 -8 -8 -17 -4 -21 10 -9 10 -249 0 -263 -4 -6 -3 -14 3 -18 5 -3 10 -11
10 -16 0 -6 -4 -8 -9 -4 -6 3 -6 -6 -1 -25 6 -21 5 -30 -3 -30 -8 0 -7 -3 2
-9 9 -6 10 -10 2 -16 -9 -5 -9 -11 1 -23 10 -11 10 -16 1 -19 -8 -3 -9 -12 -4
-26 8 -24 7 -84 -1 -93 -4 -3 -3 -18 1 -32 5 -15 6 -32 4 -37 -2 -7 165 -11
526 -10 350 0 527 -3 524 -10 -3 -5 0 -4 8 3 17 16 32 16 23 0 -6 -10 -5 -10
7 -1 12 10 18 10 29 0 10 -10 11 -9 5 1 -4 8 -8 71 -9 140 l-1 127 -42 0 c-24
0 -43 4 -43 9 0 4 -6 4 -12 -1 -7 -6 -31 -8 -53 -6 -22 2 -47 4 -55 3 -17 -1
-154 -2 -185 -1 -11 0 -38 0 -60 0 -22 0 -49 0 -60 1 -11 0 -37 -1 -57 -3 -21
-1 -38 1 -38 6 0 6 -5 5 -12 0 -15 -11 -110 -9 -129 2 -8 5 -10 4 -5 -3 9 -15
-6 -16 -21 -1 -7 7 -13 7 -17 0 -4 -5 -13 -8 -21 -5 -11 5 -14 53 -15 276 0
255 1 270 17 257 9 -8 14 -9 11 -4 -4 7 14 11 52 11 53 0 58 -1 47 -15 -9 -13
-8 -13 8 1 15 13 24 14 39 6 10 -6 16 -6 13 -1 -8 12 393 11 412 -1 9 -6 12
-5 8 1 -5 7 12 11 47 10 30 -1 53 -4 50 -8 -2 -4 7 -2 21 4 14 7 25 20 26 30
1 21 1 88 0 171 l-1 64 -61 4 c-34 1 -62 0 -64 -3 -2 -3 -29 -2 -60 1 -31 3
-58 3 -60 0 -2 -3 -29 -3 -60 0 -31 3 -58 4 -60 1 -1 -3 -69 -4 -149 -1 -80 3
-146 1 -146 -3 0 -4 -8 -4 -17 1 -10 5 -30 7 -45 6 l-28 -3 0 173 c0 124 4
176 13 185 10 11 10 13 0 7 -10 -5 -13 9 -13 58 l0 65 401 0 c221 0 404 3 408
6 3 3 6 36 6 73 0 37 5 73 9 81 6 9 5 12 -2 7 -8 -5 -10 8 -8 44 1 27 0 50 -3
51 -16 3 -1070 4 -1083 1z"/>
<path d="M3796 2903 c-6 -14 -5 -15 5 -6 7 7 10 15 7 18 -3 3 -9 -2 -12 -12z"/>
<path d="M3953 2897 c0 -8 6 -14 14 -14 9 0 10 4 2 14 -6 7 -12 13 -14 13 -1
0 -2 -6 -2 -13z"/>
<path d="M665 2890 c-3 -6 1 -7 9 -4 18 7 21 14 7 14 -6 0 -13 -4 -16 -10z"/>
<path d="M775 2890 c3 -5 8 -10 11 -10 2 0 4 5 4 10 0 6 -5 10 -11 10 -5 0 -7
-4 -4 -10z"/>
<path d="M2053 2865 c0 -8 4 -12 9 -9 4 3 8 9 8 15 0 5 -4 9 -8 9 -5 0 -9 -7
-9 -15z"/>
<path d="M2476 2868 c3 -5 10 -6 15 -3 13 9 11 12 -6 12 -8 0 -12 -4 -9 -9z"/>
<path d="M2746 2872 c-3 -5 1 -9 9 -9 8 0 12 4 9 9 -3 4 -7 8 -9 8 -2 0 -6 -4
-9 -8z"/>
<path d="M3587 2869 c7 -7 15 -10 18 -7 3 3 -2 9 -12 12 -14 6 -15 5 -6 -5z"/>
<path d="M3836 2872 c-3 -5 1 -9 9 -9 8 0 12 4 9 9 -3 4 -7 8 -9 8 -2 0 -6 -4
-9 -8z"/>
<path d="M3636 2857 c3 -10 9 -15 12 -12 3 3 0 11 -7 18 -10 9 -11 8 -5 -6z"/>
<path d="M2170 2849 c0 -5 5 -7 10 -4 6 3 10 8 10 11 0 2 -4 4 -10 4 -5 0 -10
-5 -10 -11z"/>
<path d="M2210 2856 c0 -2 7 -7 16 -10 8 -3 12 -2 9 4 -6 10 -25 14 -25 6z"/>
<path d="M2575 2850 c3 -5 8 -10 11 -10 2 0 4 5 4 10 0 6 -5 10 -11 10 -5 0
-7 -4 -4 -10z"/>
<path d="M2057 2825 c-4 -8 -3 -16 1 -19 4 -3 9 4 9 15 2 23 -3 25 -10 4z"/>
<path d="M3593 2825 c0 -8 4 -12 9 -9 5 3 6 10 3 15 -9 13 -12 11 -12 -6z"/>
<path d="M535 2821 c-3 -5 -2 -12 3 -15 5 -3 9 1 9 9 0 17 -3 19 -12 6z"/>
<path d="M4125 2550 c10 -11 20 -20 23 -20 3 0 -3 9 -13 20 -10 11 -20 20 -23
20 -3 0 3 -9 13 -20z"/>
<path d="M336 2337 c3 -10 9 -15 12 -12 3 3 0 11 -7 18 -10 9 -11 8 -5 -6z"/>
<path d="M490 2235 c0 -5 5 -17 10 -25 5 -8 10 -10 10 -5 0 6 -5 17 -10 25 -5
8 -10 11 -10 5z"/>
<path d="M3456 2203 c-6 -14 -5 -15 5 -6 7 7 10 15 7 18 -3 3 -9 -2 -12 -12z"/>
<path d="M3530 2176 c0 -2 7 -7 16 -10 8 -3 12 -2 9 4 -6 10 -25 14 -25 6z"/>
<path d="M3575 2170 c3 -5 8 -10 11 -10 2 0 4 5 4 10 0 6 -5 10 -11 10 -5 0
-7 -4 -4 -10z"/>
<path d="M656 2128 c3 -5 10 -6 15 -3 13 9 11 12 -6 12 -8 0 -12 -4 -9 -9z"/>
<path d="M2400 2130 c-9 -6 -10 -10 -3 -10 6 0 15 5 18 10 8 12 4 12 -15 0z"/>
<path d="M2460 2130 c-9 -6 -10 -10 -3 -10 6 0 15 5 18 10 8 12 4 12 -15 0z"/>
<path d="M2520 2130 c-9 -6 -10 -10 -3 -10 6 0 15 5 18 10 8 12 4 12 -15 0z"/>
<path d="M2236 2108 c3 -5 10 -6 15 -3 13 9 11 12 -6 12 -8 0 -12 -4 -9 -9z"/>
<path d="M2490 2110 c0 -5 5 -10 11 -10 5 0 7 5 4 10 -3 6 -8 10 -11 10 -2 0
-4 -4 -4 -10z"/>
<path d="M2607 2109 c7 -7 15 -10 18 -7 3 3 -2 9 -12 12 -14 6 -15 5 -6 -5z"/>
<path d="M3513 2105 c0 -8 4 -12 9 -9 5 3 6 10 3 15 -9 13 -12 11 -12 -6z"/>
<path d="M2133 2095 c0 -8 4 -12 9 -9 5 3 6 10 3 15 -9 13 -12 11 -12 -6z"/>
<path d="M730 2089 c0 -5 5 -7 10 -4 6 3 10 8 10 11 0 2 -4 4 -10 4 -5 0 -10
-5 -10 -11z"/>
<path d="M2290 2090 c0 -5 5 -10 11 -10 5 0 7 5 4 10 -3 6 -8 10 -11 10 -2 0
-4 -4 -4 -10z"/>
<path d="M815 2081 c-3 -5 -2 -12 3 -15 5 -3 9 1 9 9 0 17 -3 19 -12 6z"/>
<path d="M2659 2063 c-13 -16 -12 -17 4 -4 16 13 21 21 13 21 -2 0 -10 -8 -17
-17z"/>
<path d="M3710 2071 c0 -6 4 -13 10 -16 6 -3 7 1 4 9 -7 18 -14 21 -14 7z"/>
<path d="M830 2036 c0 -2 7 -7 16 -10 8 -3 12 -2 9 4 -6 10 -25 14 -25 6z"/>
<path d="M3895 2010 c-3 -5 -1 -10 4 -10 6 0 11 5 11 10 0 6 -2 10 -4 10 -3 0
-8 -4 -11 -10z"/>
<path d="M869 1993 c-13 -16 -12 -17 4 -4 9 7 17 15 17 17 0 8 -8 3 -21 -13z"/>
<path d="M3946 1988 c3 -5 10 -6 15 -3 13 9 11 12 -6 12 -8 0 -12 -4 -9 -9z"/>
<path d="M1235 1450 c3 -5 8 -10 11 -10 2 0 4 5 4 10 0 6 -5 10 -11 10 -5 0
-7 -4 -4 -10z"/>
<path d="M4186 1388 c3 -5 10 -6 15 -3 13 9 11 12 -6 12 -8 0 -12 -4 -9 -9z"/>
<path d="M3255 1371 c-3 -5 -2 -12 3 -15 5 -3 9 1 9 9 0 17 -3 19 -12 6z"/>
<path d="M3330 1370 c0 -5 5 -10 11 -10 5 0 7 5 4 10 -3 6 -8 10 -11 10 -2 0
-4 -4 -4 -10z"/>
<path d="M335 1349 c-3 -4 2 -6 10 -5 21 3 28 13 10 13 -9 0 -18 -4 -20 -8z"/>
<path d="M4115 1350 c-3 -5 -1 -10 4 -10 6 0 11 5 11 10 0 6 -2 10 -4 10 -3 0
-8 -4 -11 -10z"/>
<path d="M415 1330 c3 -5 8 -10 11 -10 2 0 4 5 4 10 0 6 -5 10 -11 10 -5 0 -7
-4 -4 -10z"/>
<path d="M3436 1328 c3 -5 10 -6 15 -3 13 9 11 12 -6 12 -8 0 -12 -4 -9 -9z"/>
<path d="M3360 1310 c-9 -6 -10 -10 -3 -10 6 0 15 5 18 10 8 12 4 12 -15 0z"/>
<path d="M1915 1299 c-4 -6 -5 -12 -2 -15 2 -3 7 2 10 11 7 17 1 20 -8 4z"/>
<path d="M2013 1285 c0 -8 4 -12 9 -9 5 3 6 10 3 15 -9 13 -12 11 -12 -6z"/>
<path d="M2173 1285 c0 -8 4 -12 9 -9 5 3 6 10 3 15 -9 13 -12 11 -12 -6z"/>
<path d="M2333 1285 c0 -8 4 -12 9 -9 5 3 6 10 3 15 -9 13 -12 11 -12 -6z"/>
<path d="M2493 1285 c0 -8 4 -12 9 -9 5 3 6 10 3 15 -9 13 -12 11 -12 -6z"/>
<path d="M913 1275 c0 -8 4 -12 9 -9 5 3 6 10 3 15 -9 13 -12 11 -12 -6z"/>
</g>
</svg>
