<svg version="1" xmlns="http://www.w3.org/2000/svg" width="933.333" height="933.333" viewBox="0 0 700.000000 700.000000"><path d="M0 350v350h700V0H0v350zM693 68.5V130H7V7h686v61.5zm-132 105V195H42v-43h519v21.5zm-142 70V265H43v-43h376v21.5zm-115.5 81.7l9 2.4.3 8.7.3 8.8-3.8-1.7c-12.1-5.3-18.7-6.7-30.3-6.8-10.7-.1-11.9.1-17.2 2.7-8.8 4.3-12.8 13.2-9.9 21.9 2.4 7.4 7.2 9.8 27.7 14.2 22.7 4.8 31.2 9.6 37.2 21 2.5 4.7 2.7 6.1 2.7 16.6 0 13.3-1.5 17.8-8.1 24.4-8 8-20.4 11.9-37.9 11.9-11.3 0-19.2-1.3-31.2-4.9l-8.3-2.5V433c0-5 .2-9 .4-9s3.7 1.6 7.7 3.5c24.6 11.6 51.1 9.5 58.1-4.5 4-7.9 1.1-19.9-5.9-24.3-4.8-3-7.8-4-24-7.6-27.7-6.2-36.6-14.6-36.6-34.3 0-7.8.3-9.4 3.2-15.2 4.5-9.2 10.9-14.3 22.6-17.8 8.9-2.6 31.6-1.9 44 1.4zm213 0l9 2.4.3 8.8c.2 6.9 0 8.7-1 8.3-16-7-25-9.1-36.7-8.4-11.1.7-18.4 4.2-21.8 10.6-4.6 8.9-1.9 19.2 6.1 23 2.3 1 11.2 3.5 20 5.5 17.8 4 24.4 6.7 30.5 12.2 6.7 6 9.4 12.2 9.9 23 .6 12.2-1.3 18.5-7.4 25.3-8.4 9.3-20.1 13.3-38.9 13.4-11.8 0-18.2-1-31.2-4.9l-8.3-2.5V433c0-5 .2-9 .4-9s3 1.3 6.2 2.9c11.7 5.8 19.7 7.6 32.9 7.5 13 0 16.4-1 22.5-6.1 6.3-5.3 7.9-15.1 3.8-23.3-3.2-6.3-9.2-9.3-27.5-13.4-16.9-3.9-24.4-6.8-30.1-12-6-5.4-8.5-12.2-8.6-22.7 0-7.7.3-9.3 3.2-15.2 4.6-9.4 11.8-15 23.4-18.2 8.3-2.3 31.7-1.4 43.3 1.7zm-293.5-1c0 .2-9.6 31.3-21.3 69.3l-21.3 69-7.2.3c-5.2.2-7.2-.1-7.2-.9 0-.7 9.1-30.5 20.1-66.3 11.1-35.8 20.6-66.6 21.1-68.4l.9-3.2h7.4c4.1 0 7.5.1 7.5.2zm201 7.3v7.5h-61v35h58v15h-58v43h62v15h-80V324h79v7.5zm-275.2 25.2l-.3 7.8-40.7 14.5c-22.4 8-40.9 14.7-41.2 15-.3.3 18 7.1 40.7 15.1l41.2 14.6.3 7.7c.3 7.2.1 7.7-1.7 7.4-1-.2-24.9-8.6-53-18.8L43 401.5l.2-7.4.3-7.5L95 367.9c28.3-10.4 52.1-18.8 52.8-18.9 1 0 1.2 1.9 1 7.7zM613.5 368l52 18.8v14.5L615 419.7c-27.8 10.1-51.5 18.6-52.7 18.9-2.2.6-2.3.4-2.3-7.2v-7.9l41-14.4c22.5-8 40.7-14.7 40.5-15.1-.2-.3-18.6-7.1-40.9-15L560 364.5v-7.7c0-4.3.3-7.8.8-7.8.4 0 24.1 8.6 52.7 19zM528 525v21H43v-42h485v21zM416 652v21H43v-20.3c0-11.2.3-20.7.7-21 .3-.4 84.3-.7 186.5-.7H416v21z"/><path d="M51.5 51.4c-9.5 4.1-13.2 17.9-7.1 26.8 3.7 5.5 8.1 7.8 14.9 7.8 10.1 0 17-5.7 18.3-15.2 1.1-8-3.4-16.6-10.3-19.4-4.1-1.8-11.9-1.7-15.8 0z"/></svg>