<?xml version="1.0" standalone="no"?>
<!DOCTYPE svg PUBLIC "-//W3C//DTD SVG 20010904//EN"
 "http://www.w3.org/TR/2001/REC-SVG-20010904/DTD/svg10.dtd">
<svg version="1.0" xmlns="http://www.w3.org/2000/svg"
 width="300.000000pt" height="300.000000pt" viewBox="0 0 300.000000 300.000000"
 preserveAspectRatio="xMidYMid meet">
<metadata>
Created by potrace 1.11, written by Peter Selinger 2001-2013
</metadata>
<g transform="translate(0.000000,300.000000) scale(0.100000,-0.100000)"
fill="#000000" stroke="none">
<path d="M860 1752 c0 -561 -1 -553 75 -708 55 -111 156 -238 255 -321 84 -71
257 -163 306 -163 40 0 194 76 270 134 125 94 235 231 304 380 67 142 70 175
70 706 l0 470 -640 0 -640 0 0 -498z m628 323 l3 -90 -53 -13 c-30 -6 -66 -12
-81 -12 l-27 0 0 79 c0 44 -3 86 -6 95 -5 13 1 16 27 17 19 0 43 4 54 9 11 5
34 8 50 7 l30 -2 3 -90z m140 79 l42 -7 0 -93 0 -94 -27 0 c-15 0 -51 6 -80
12 l-53 13 0 86 c0 47 3 89 7 93 5 4 21 5 38 2 16 -4 49 -9 73 -12z m-511 -24
c6 0 8 -12 5 -27 -3 -22 -2 -25 8 -17 18 18 50 5 50 -20 -1 -28 -44 -76 -70
-76 -11 0 -20 -6 -21 -12 0 -10 -2 -10 -6 0 -2 6 -14 12 -25 12 -24 0 -62 45
-65 78 -2 21 2 24 28 20 23 -4 29 -1 29 14 0 10 8 26 18 37 14 15 19 16 28 5
6 -8 16 -14 21 -14z m823 -28 c0 -15 6 -18 28 -14 25 3 28 1 27 -22 0 -28 -44
-76 -70 -76 -8 0 -15 -6 -16 -12 0 -10 -2 -10 -6 0 -2 6 -14 12 -24 12 -25 0
-68 48 -69 76 0 25 32 38 50 20 10 -8 11 -5 6 17 -5 20 -3 27 8 27 8 0 16 7
20 15 5 13 9 12 26 -5 11 -11 20 -28 20 -38z m-30 -162 c0 -5 -5 -10 -11 -10
-5 0 -7 5 -4 10 3 6 8 10 11 10 2 0 4 -4 4 -10z m190 -374 c0 -339 -4 -364
-77 -511 -99 -198 -286 -374 -475 -446 l-57 -22 -103 51 c-212 104 -383 295
-466 524 -27 73 -27 75 -30 391 l-3 317 605 0 606 0 0 -304z"/>
<path d="M976 1801 c-10 -63 13 -101 98 -166 21 -16 34 -31 29 -32 -15 -5
-105 36 -130 59 l-23 21 0 -24 c0 -13 5 -40 10 -60 9 -33 20 -42 93 -80 l82
-44 -42 -3 c-27 -2 -60 4 -89 18 -26 11 -48 19 -50 18 -1 -2 7 -23 19 -48 26
-52 58 -71 127 -74 40 -1 46 -3 37 -15 -20 -24 -97 -53 -123 -47 -32 8 -33
-22 -1 -52 29 -27 71 -28 120 -3 34 17 36 17 27 1 -15 -28 -78 -53 -116 -47
-19 3 -34 4 -34 2 0 -2 14 -20 31 -40 48 -54 81 -49 179 24 l32 24 -16 -31
c-9 -18 -31 -39 -49 -49 -40 -21 -17 -29 42 -13 47 12 96 50 116 90 12 24 12
33 2 53 -12 23 -15 24 -38 12 -21 -12 -27 -11 -46 7 -13 12 -23 26 -23 33 0 6
-14 16 -31 22 -25 10 -29 16 -24 33 4 14 1 28 -10 40 -10 11 -15 26 -11 36 4
10 -1 25 -11 36 -16 18 -16 20 4 40 18 17 20 25 10 45 -10 21 -8 27 12 42 35
27 23 50 -49 93 -36 22 -83 57 -106 79 l-41 40 -7 -40z"/>
<path d="M1968 1799 c-20 -20 -66 -54 -102 -76 -53 -31 -66 -43 -66 -63 0 -14
8 -30 20 -38 17 -10 18 -16 8 -37 -9 -21 -8 -28 7 -45 17 -19 17 -21 0 -40
-15 -17 -16 -22 -4 -36 11 -14 10 -18 -6 -30 -10 -8 -19 -26 -20 -41 0 -18 -8
-31 -23 -39 -13 -6 -32 -26 -43 -43 -19 -31 -19 -31 -49 -16 -29 15 -30 15
-42 -10 -25 -55 57 -138 149 -151 l38 -6 -33 27 c-18 15 -40 41 -48 58 l-16
32 33 -31 c82 -75 132 -84 180 -33 35 38 36 48 5 42 -35 -7 -89 13 -117 43
l-23 25 44 -20 c25 -11 57 -21 71 -21 32 0 65 26 74 59 6 21 5 23 -17 18 -32
-8 -87 8 -122 36 l-28 23 58 1 c68 2 100 22 127 77 10 21 16 40 14 42 -2 2
-25 -5 -51 -16 -29 -14 -62 -20 -89 -18 l-42 3 65 31 c98 47 112 61 118 124 5
52 4 54 -12 37 -22 -21 -65 -44 -120 -63 l-41 -14 35 27 c19 15 54 46 78 69
38 38 42 46 42 92 0 28 -3 53 -7 55 -5 2 -24 -13 -45 -34z"/>
<path d="M1556 1815 c5 -12 -6 -14 -63 -13 -79 3 -126 -16 -131 -50 -4 -25 1
-27 26 -11 15 9 25 8 48 -7 l28 -19 -48 -3 c-28 -2 -54 2 -63 10 -13 10 -15 9
-12 -7 4 -17 15 -21 69 -26 59 -5 60 -6 18 -7 -52 -2 -68 -22 -18 -22 34 0 39
-13 13 -30 -15 -9 -12 -10 12 -5 17 4 40 7 53 7 12 0 22 4 22 10 0 5 12 0 26
-11 42 -33 58 -27 34 12 -26 42 -26 102 0 124 24 21 26 49 4 57 -22 9 -24 8
-18 -9z"/>
<path d="M1241 1732 c-7 -13 -13 -43 -13 -67 0 -35 -4 -45 -19 -50 -23 -7 -24
-15 -5 -40 12 -16 11 -21 -7 -35 -21 -18 -16 -40 9 -40 18 0 18 -8 -1 -27 -18
-18 -11 -33 16 -33 19 0 19 -1 5 -22 -23 -32 -20 -41 13 -36 23 3 27 1 24 -13
-3 -9 0 -26 7 -38 9 -17 14 -19 30 -11 29 15 28 111 0 147 -11 14 -20 35 -20
45 0 17 5 19 26 14 33 -9 54 9 54 45 0 22 -9 35 -39 55 -39 25 -57 55 -63 104
l-3 25 -14 -23z"/>
<path d="M1730 1714 c0 -30 -8 -44 -50 -84 -53 -51 -56 -59 -39 -92 8 -16 17
-19 40 -14 26 5 29 3 29 -19 0 -14 -9 -34 -20 -45 -38 -38 -19 -153 24 -137 9
4 16 17 16 32 0 20 5 25 25 25 25 0 35 23 15 35 -17 10 -11 25 10 25 22 0 26
20 8 38 -13 13 -6 21 27 36 6 3 -1 13 -14 24 -22 18 -23 20 -7 44 16 25 16 26
-8 32 -22 5 -25 10 -20 35 7 32 -12 101 -27 101 -5 0 -9 -16 -9 -36z"/>
<path d="M1440 1589 c-19 -7 -37 -31 -64 -85 -53 -105 -49 -148 22 -266 59
-98 65 -133 27 -168 -14 -13 -25 -27 -25 -32 0 -12 54 -10 67 3 7 7 12 1 17
-21 7 -36 26 -31 26 6 0 21 3 23 19 14 11 -5 32 -10 46 -10 l26 0 -30 37 c-17
21 -31 46 -31 56 0 11 23 59 50 106 58 100 73 144 64 186 -8 37 -69 161 -85
170 -18 12 -102 14 -129 4z m90 -64 c14 -15 21 -31 17 -45 -4 -14 0 -20 11
-20 22 -1 62 -34 62 -52 -1 -20 -49 -51 -71 -45 -15 4 -19 0 -19 -18 0 -13 5
-27 10 -30 18 -11 11 -41 -15 -65 l-25 -23 -25 23 c-26 24 -33 54 -15 65 6 3
10 17 10 30 0 21 -4 24 -28 19 -20 -4 -33 0 -50 19 l-22 24 21 26 c12 16 30
27 44 27 18 0 22 4 18 20 -5 19 29 70 47 70 4 0 17 -11 30 -25z"/>
<path d="M1474 1509 c-14 -16 -15 -23 -6 -26 17 -7 16 -63 -3 -63 -7 0 -18 7
-23 16 -8 15 -12 14 -31 -5 l-21 -21 21 -23 c15 -15 23 -18 26 -9 3 6 13 12
24 12 16 0 19 -7 19 -44 0 -26 -5 -46 -12 -49 -9 -3 -7 -11 8 -27 21 -21 22
-21 43 -4 25 22 27 34 6 34 -11 0 -15 12 -15 45 0 38 3 45 19 45 11 0 21 -6
24 -12 3 -9 12 -6 28 10 l23 22 -22 23 c-21 20 -24 21 -33 5 -16 -29 -39 -22
-39 12 0 20 5 30 15 30 21 0 19 12 -5 33 -25 21 -23 21 -46 -4z"/>
<path d="M1360 1220 c0 -16 -61 -80 -76 -80 -8 0 -14 -5 -14 -11 0 -7 15 -10
41 -7 37 3 40 2 35 -18 -3 -12 -2 -33 3 -46 8 -22 8 -22 15 7 4 17 17 44 30
60 l24 30 -21 38 c-20 35 -37 48 -37 27z"/>
<path d="M1600 1198 c-25 -41 -25 -40 5 -84 14 -20 25 -45 25 -56 0 -11 4 -16
11 -12 6 3 9 23 7 43 l-3 36 37 -4 c39 -3 53 13 19 22 -11 2 -33 24 -50 47
l-30 42 -21 -34z"/>
<path d="M1113 1113 c-20 -8 -15 -23 7 -23 11 0 20 7 20 15 0 15 -6 17 -27 8z"/>
<path d="M1855 1110 c-3 -5 -15 -10 -26 -10 -12 0 -19 -7 -19 -20 0 -30 -28
-36 -60 -11 -16 11 -42 21 -57 21 l-28 -1 40 -35 c38 -34 38 -35 13 -29 -24 6
-28 4 -28 -13 0 -26 17 -37 34 -23 20 17 44 3 51 -29 7 -34 29 -54 49 -47 10
4 13 -1 11 -19 -1 -15 2 -23 9 -21 14 5 21 57 7 57 -6 0 -11 6 -11 13 0 8 -11
24 -25 37 -29 27 -19 48 13 31 11 -6 28 -11 37 -11 24 0 15 43 -10 50 -31 8
-9 48 24 43 20 -3 22 -1 11 12 -14 17 -26 19 -35 5z"/>
<path d="M1144 1088 c-4 -6 1 -17 10 -24 16 -11 15 -13 -11 -16 -17 -2 -29
-10 -31 -21 -4 -22 25 -34 49 -19 10 7 23 12 29 12 16 0 11 -28 -8 -42 -29
-22 -54 -67 -47 -88 11 -33 28 -23 21 11 -5 26 -4 29 8 20 20 -17 44 -3 51 29
8 37 29 54 51 42 9 -5 25 -7 35 -5 11 3 19 0 19 -6 0 -6 5 -11 10 -11 6 0 10
6 10 14 0 20 -46 47 -67 40 -10 -3 -3 6 15 21 38 32 40 41 7 47 -17 4 -31 -2
-46 -18 -29 -31 -55 -31 -63 1 -7 26 -30 33 -42 13z"/>
<path d="M1087 1023 c-10 -9 -9 -51 2 -57 11 -7 21 39 11 54 -3 5 -9 7 -13 3z"/>
<path d="M1890 1015 c0 -11 4 -26 9 -33 7 -11 9 -11 14 1 3 8 -1 23 -8 34 -14
17 -14 17 -15 -2z"/>
<path d="M1653 990 c-6 -23 -16 -25 -32 -6 -13 15 -91 18 -91 3 0 -5 18 -27
40 -49 32 -33 45 -39 72 -36 l33 3 5 -60 5 -60 18 32 c26 48 22 87 -12 121
-21 20 -27 33 -20 43 12 19 11 29 -2 29 -6 0 -13 -9 -16 -20z"/>
<path d="M1355 974 c-49 -28 -85 -68 -85 -96 0 -24 29 -88 41 -88 4 0 5 16 2
34 -3 19 -3 46 1 61 5 21 11 24 30 19 40 -10 116 45 116 84 0 17 -66 8 -105
-14z"/>
<path d="M1459 928 c-23 -32 -68 -58 -101 -58 -16 0 -19 -3 -11 -11 6 -6 9
-26 6 -45 -5 -29 -3 -34 15 -34 11 0 23 4 27 10 3 5 15 0 26 -11 11 -11 23
-18 27 -15 3 4 0 12 -6 18 -14 14 -16 74 -3 82 5 3 11 -12 15 -33 12 -75 55
-79 85 -9 17 40 19 41 25 20 5 -15 2 -32 -9 -48 -22 -34 -14 -39 18 -13 15 11
27 16 27 10 0 -17 40 -13 46 4 4 8 0 23 -7 32 -11 13 -11 17 -1 20 22 8 12 21
-22 27 -22 4 -47 20 -69 45 -41 45 -61 47 -88 9z"/>
</g>
</svg>
